<?xml version="1.0" encoding="UTF-8" standalone="no"?>
<!-- Created by diasvg.py -->
<svg width="19.100cm" height="7.100cm" viewBox="-0.050 -0.050 19.100 7.100"
 xmlns="http://www.w3.org/2000/svg"
 xmlns:xlink="http://www.w3.org/1999/xlink">
<!-- Layer: Background -->
<g id="Background">
<!-- Flowchart - Box -->
<rect x="0.000" y="0.000" width="5.000" height="7.000" fill="#FFFFFF" stroke="#000000" stroke-width="0.100"  rx="0.000" />
<text x="2.500" y="3.695"  fill="#000000" text-anchor="middle" font-size="0.80" font-family="sans" font-style="normal" font-weight="400">
Malware</text>
<!-- Flowchart - Box -->
<rect x="7.500" y="0.000" width="5.500" height="2.000" fill="#FFFFFF" stroke="#000000" stroke-width="0.100"  rx="0.000" />
<text x="10.250" y="1.195"  fill="#000000" text-anchor="middle" font-size="0.80" font-family="sans" font-style="normal" font-weight="400">
XMLHTTP</text>
<!-- Flowchart - Box -->
<rect x="7.500" y="2.500" width="5.500" height="2.000" fill="#FFFFFF" stroke="#000000" stroke-width="0.100"  rx="0.000" />
<text x="10.250" y="3.695"  fill="#000000" text-anchor="middle" font-size="0.80" font-family="sans" font-style="normal" font-weight="400">
ADODB</text>
<!-- Flowchart - Box -->
<rect x="7.500" y="5.000" width="5.500" height="2.000" fill="#FFFFFF" stroke="#000000" stroke-width="0.100"  rx="0.000" />
<text x="10.250" y="6.195"  fill="#000000" text-anchor="middle" font-size="0.80" font-family="sans" font-style="normal" font-weight="400">
WScript.Shell</text>
<!-- Flowchart - Box -->
<rect x="14.500" y="0.000" width="4.500" height="2.000" fill="#FFFFFF" stroke="#000000" stroke-width="0.100"  rx="0.000" />
<text x="16.750" y="1.195"  fill="#000000" text-anchor="middle" font-size="0.80" font-family="sans" font-style="normal" font-weight="400">
Internet</text>
<!-- Flowchart - Box -->
<rect x="14.500" y="2.500" width="4.500" height="2.000" fill="#FFFFFF" stroke="#000000" stroke-width="0.100"  rx="0.000" />
<text x="16.750" y="3.695"  fill="#000000" text-anchor="middle" font-size="0.80" font-family="sans" font-style="normal" font-weight="400">
Filesystem</text>
<!-- Flowchart - Box -->
<rect x="14.500" y="5.000" width="4.500" height="2.000" fill="#FFFFFF" stroke="#000000" stroke-width="0.100"  rx="0.000" />
<text x="16.750" y="6.195"  fill="#000000" text-anchor="middle" font-size="0.80" font-family="sans" font-style="normal" font-weight="400">
Shell</text>
<!-- Standard - ZigZagLine -->
<polyline fill="none" stroke="#000000" stroke-width="0.100"  points="5.000,3.500 6.250,3.500 6.250,1.000 7.013,1.000 "/>
<polygon fill="#000000" stroke="#000000" stroke-width="0.100"  points="7.388,1.000 6.888,1.250 7.013,1.000 6.888,0.750 "/>
<!-- Standard - ZigZagLine -->
<polyline fill="none" stroke="#000000" stroke-width="0.100"  points="5.000,3.500 6.250,3.500 6.250,6.000 7.013,6.000 "/>
<polygon fill="#000000" stroke="#000000" stroke-width="0.100"  points="7.388,6.000 6.888,6.250 7.013,6.000 6.888,5.750 "/>
<!-- Standard - ZigZagLine -->
<polyline fill="none" stroke="#000000" stroke-width="0.100"  points="5.000,3.500 6.250,3.500 6.250,3.500 7.013,3.500 "/>
<polygon fill="#000000" stroke="#000000" stroke-width="0.100"  points="7.388,3.500 6.888,3.750 7.013,3.500 6.888,3.250 "/>
<!-- Standard - Line -->
<line x1="13.000" y1="1.000" x2="14.013" y2="1.000" stroke="#000000" stroke-width="0.100" stroke-dasharray="0.10,0.10"/>
<polygon fill="#000000" stroke="#000000" stroke-width="0.100"  points="14.388,1.000 13.888,1.250 14.013,1.000 13.888,0.750 "/>
<!-- Standard - Line -->
<line x1="13.050" y1="3.500" x2="14.013" y2="3.500" stroke="#000000" stroke-width="0.100" stroke-dasharray="0.10,0.10"/>
<polygon fill="#000000" stroke="#000000" stroke-width="0.100"  points="14.388,3.500 13.888,3.750 14.013,3.500 13.888,3.250 "/>
<!-- Standard - Line -->
<line x1="13.000" y1="6.000" x2="14.013" y2="6.000" stroke="#000000" stroke-width="0.100" stroke-dasharray="0.10,0.10"/>
<polygon fill="#000000" stroke="#000000" stroke-width="0.100"  points="14.388,6.000 13.888,6.250 14.013,6.000 13.888,5.750 "/>
</g>
</svg>