<?xml version="1.0" encoding="UTF-8" standalone="no"?>
<!DOCTYPE svg PUBLIC "-//W3C//DTD SVG 1.1//EN"
 "http://www.w3.org/Graphics/SVG/1.1/DTD/svg11.dtd">
<!-- Generated by graphviz version 2.38.0 (20140413.2041)
 -->
<!-- Title: AST Pages: 1 -->
<svg width="536pt" height="332pt"
 viewBox="0.00 0.00 536.02 332.00" xmlns="http://www.w3.org/2000/svg" xmlns:xlink="http://www.w3.org/1999/xlink">
<g id="graph0" class="graph" transform="scale(1 1) rotate(0) translate(4 328)">
<title>AST</title>
<polygon fill="white" stroke="none" points="-4,4 -4,-328 532.017,-328 532.017,4 -4,4"/>
<!-- eval -->
<g id="node1" class="node"><title>eval</title>
<ellipse fill="#ef9a9a" stroke="black" cx="80.8689" cy="-234" rx="27" ry="18"/>
<text text-anchor="middle" x="80.8689" y="-229.8" font-family="Times,serif" font-size="14.00">eval</text>
</g>
<!-- eval(rewrite(foobar.decrypt() + &quot;unknown code&quot;)) -->
<g id="node2" class="node"><title>eval(rewrite(foobar.decrypt() + &quot;unknown code&quot;))</title>
<ellipse fill="#ef9a9a" stroke="black" cx="184.869" cy="-306" rx="184.738" ry="18"/>
<text text-anchor="middle" x="184.869" y="-301.8" font-family="Times,serif" font-size="14.00">eval(rewrite(foobar.decrypt() + &quot;unknown code&quot;))</text>
</g>
<!-- eval(rewrite(foobar.decrypt() + &quot;unknown code&quot;))&#45;&gt;eval -->
<g id="edge7" class="edge"><title>eval(rewrite(foobar.decrypt() + &quot;unknown code&quot;))&#45;&gt;eval</title>
<path fill="none" stroke="black" d="M159.693,-288.055C143.969,-277.472 123.739,-263.855 107.711,-253.067"/>
<polygon fill="black" stroke="black" points="109.544,-250.081 99.2936,-247.401 105.635,-255.889 109.544,-250.081"/>
</g>
<!-- rewrite(foobar.decrypt() + &quot;unknown code&quot;) -->
<g id="node3" class="node"><title>rewrite(foobar.decrypt() + &quot;unknown code&quot;)</title>
<ellipse fill="#ffe082" stroke="black" cx="289.869" cy="-234" rx="164.5" ry="18"/>
<text text-anchor="middle" x="289.869" y="-229.8" font-family="Times,serif" font-size="14.00">rewrite(foobar.decrypt() + &quot;unknown code&quot;)</text>
</g>
<!-- eval(rewrite(foobar.decrypt() + &quot;unknown code&quot;))&#45;&gt;rewrite(foobar.decrypt() + &quot;unknown code&quot;) -->
<g id="edge8" class="edge"><title>eval(rewrite(foobar.decrypt() + &quot;unknown code&quot;))&#45;&gt;rewrite(foobar.decrypt() + &quot;unknown code&quot;)</title>
<path fill="none" stroke="black" d="M210.286,-288.055C224.087,-278.855 241.325,-267.363 256.226,-257.429"/>
<polygon fill="black" stroke="black" points="258.306,-260.248 264.685,-251.789 254.423,-254.424 258.306,-260.248"/>
</g>
<!-- rewrite -->
<g id="node4" class="node"><title>rewrite</title>
<ellipse fill="#ffe082" stroke="black" cx="196.869" cy="-162" rx="35.2956" ry="18"/>
<text text-anchor="middle" x="196.869" y="-157.8" font-family="Times,serif" font-size="14.00">rewrite</text>
</g>
<!-- rewrite(foobar.decrypt() + &quot;unknown code&quot;)&#45;&gt;rewrite -->
<g id="edge1" class="edge"><title>rewrite(foobar.decrypt() + &quot;unknown code&quot;)&#45;&gt;rewrite</title>
<path fill="none" stroke="black" d="M267.356,-216.055C254.268,-206.204 237.689,-193.724 223.898,-183.344"/>
<polygon fill="black" stroke="black" points="225.822,-180.412 215.727,-177.195 221.612,-186.005 225.822,-180.412"/>
</g>
<!-- foobar.decrypt() + &quot;unknown code&quot; -->
<g id="node5" class="node"><title>foobar.decrypt() + &quot;unknown code&quot;</title>
<ellipse fill="#c5e1a5" stroke="black" cx="382.869" cy="-162" rx="133.139" ry="18"/>
<text text-anchor="middle" x="382.869" y="-157.8" font-family="Times,serif" font-size="14.00">foobar.decrypt() + &quot;unknown code&quot;</text>
</g>
<!-- rewrite(foobar.decrypt() + &quot;unknown code&quot;)&#45;&gt;foobar.decrypt() + &quot;unknown code&quot; -->
<g id="edge2" class="edge"><title>rewrite(foobar.decrypt() + &quot;unknown code&quot;)&#45;&gt;foobar.decrypt() + &quot;unknown code&quot;</title>
<path fill="none" stroke="black" d="M312.382,-216.055C324.376,-207.027 339.303,-195.792 352.328,-185.987"/>
<polygon fill="black" stroke="black" points="354.679,-188.599 360.564,-179.789 350.469,-183.006 354.679,-188.599"/>
</g>
<!-- foobar.decrypt() -->
<g id="node6" class="node"><title>foobar.decrypt()</title>
<ellipse fill="#c5e1a5" stroke="black" cx="306.869" cy="-90" rx="64.7382" ry="18"/>
<text text-anchor="middle" x="306.869" y="-85.8" font-family="Times,serif" font-size="14.00">foobar.decrypt()</text>
</g>
<!-- foobar.decrypt() + &quot;unknown code&quot;&#45;&gt;foobar.decrypt() -->
<g id="edge3" class="edge"><title>foobar.decrypt() + &quot;unknown code&quot;&#45;&gt;foobar.decrypt()</title>
<path fill="none" stroke="black" d="M364.471,-144.055C354.785,-135.134 342.76,-124.057 332.205,-114.336"/>
<polygon fill="black" stroke="black" points="334.561,-111.748 324.835,-107.547 329.819,-116.897 334.561,-111.748"/>
</g>
<!-- &quot;unknown code&quot; -->
<g id="node9" class="node"><title>&quot;unknown code&quot;</title>
<ellipse fill="#c5e1a5" stroke="black" cx="458.869" cy="-90" rx="69.2967" ry="18"/>
<text text-anchor="middle" x="458.869" y="-85.8" font-family="Times,serif" font-size="14.00">&quot;unknown code&quot;</text>
</g>
<!-- foobar.decrypt() + &quot;unknown code&quot;&#45;&gt;&quot;unknown code&quot; -->
<g id="edge6" class="edge"><title>foobar.decrypt() + &quot;unknown code&quot;&#45;&gt;&quot;unknown code&quot;</title>
<path fill="none" stroke="black" d="M401.266,-144.055C410.952,-135.134 422.978,-124.057 433.533,-114.336"/>
<polygon fill="black" stroke="black" points="435.919,-116.897 440.903,-107.547 431.176,-111.748 435.919,-116.897"/>
</g>
<!-- Prototype.decrypt -->
<g id="node7" class="node"><title>Prototype.decrypt</title>
<ellipse fill="#c5e1a5" stroke="black" cx="246.869" cy="-18" rx="73.4496" ry="18"/>
<text text-anchor="middle" x="246.869" y="-13.8" font-family="Times,serif" font-size="14.00">Prototype.decrypt</text>
</g>
<!-- foobar.decrypt()&#45;&gt;Prototype.decrypt -->
<g id="edge4" class="edge"><title>foobar.decrypt()&#45;&gt;Prototype.decrypt</title>
<path fill="none" stroke="black" d="M292.65,-72.411C285.286,-63.8197 276.148,-53.1594 267.978,-43.6275"/>
<polygon fill="black" stroke="black" points="270.568,-41.271 261.403,-35.9562 265.253,-45.8266 270.568,-41.271"/>
</g>
<!-- foobar -->
<g id="node8" class="node"><title>foobar</title>
<ellipse fill="#c5e1a5" stroke="black" cx="367.869" cy="-18" rx="30.0035" ry="18"/>
<text text-anchor="middle" x="367.869" y="-13.8" font-family="Times,serif" font-size="14.00">foobar</text>
</g>
<!-- foobar.decrypt()&#45;&gt;foobar -->
<g id="edge5" class="edge"><title>foobar.decrypt()&#45;&gt;foobar</title>
<path fill="none" stroke="black" d="M321.325,-72.411C329.22,-63.351 339.12,-51.99 347.758,-42.0779"/>
<polygon fill="black" stroke="black" points="350.421,-44.3494 354.352,-34.5108 345.144,-39.7505 350.421,-44.3494"/>
</g>
</g>
</svg>
