<?xml version="1.0" encoding="UTF-8" standalone="no"?>
<!DOCTYPE svg PUBLIC "-//W3C//DTD SVG 1.1//EN"
 "http://www.w3.org/Graphics/SVG/1.1/DTD/svg11.dtd">
<!-- Generated by graphviz version 2.38.0 (20140413.2041)
 -->
<!-- Title: AST Pages: 1 -->
<svg width="396pt" height="260pt"
 viewBox="0.00 0.00 396.09 260.00" xmlns="http://www.w3.org/2000/svg" xmlns:xlink="http://www.w3.org/1999/xlink">
<g id="graph0" class="graph" transform="scale(1 1) rotate(0) translate(4 256)">
<title>AST</title>
<polygon fill="white" stroke="none" points="-4,4 -4,-256 392.087,-256 392.087,4 -4,4"/>
<!-- eval -->
<g id="node1" class="node"><title>eval</title>
<ellipse fill="#ef9a9a" stroke="black" cx="64.9384" cy="-162" rx="27" ry="18"/>
<text text-anchor="middle" x="64.9384" y="-157.8" font-family="Times,serif" font-size="14.00">eval</text>
</g>
<!-- eval(foobar.decrypt() + &quot;unknown code&quot;) -->
<g id="node2" class="node"><title>eval(foobar.decrypt() + &quot;unknown code&quot;)</title>
<ellipse fill="#ef9a9a" stroke="black" cx="153.938" cy="-234" rx="153.877" ry="18"/>
<text text-anchor="middle" x="153.938" y="-229.8" font-family="Times,serif" font-size="14.00">eval(foobar.decrypt() + &quot;unknown code&quot;)</text>
</g>
<!-- eval(foobar.decrypt() + &quot;unknown code&quot;)&#45;&gt;eval -->
<g id="edge5" class="edge"><title>eval(foobar.decrypt() + &quot;unknown code&quot;)&#45;&gt;eval</title>
<path fill="none" stroke="black" d="M132.394,-216.055C119.528,-205.936 103.136,-193.043 89.7332,-182.502"/>
<polygon fill="black" stroke="black" points="91.8562,-179.718 81.8323,-176.287 87.5287,-185.221 91.8562,-179.718"/>
</g>
<!-- foobar.decrypt() + &quot;unknown code&quot; -->
<g id="node3" class="node"><title>foobar.decrypt() + &quot;unknown code&quot;</title>
<ellipse fill="#c5e1a5" stroke="black" cx="242.938" cy="-162" rx="133.139" ry="18"/>
<text text-anchor="middle" x="242.938" y="-157.8" font-family="Times,serif" font-size="14.00">foobar.decrypt() + &quot;unknown code&quot;</text>
</g>
<!-- eval(foobar.decrypt() + &quot;unknown code&quot;)&#45;&gt;foobar.decrypt() + &quot;unknown code&quot; -->
<g id="edge6" class="edge"><title>eval(foobar.decrypt() + &quot;unknown code&quot;)&#45;&gt;foobar.decrypt() + &quot;unknown code&quot;</title>
<path fill="none" stroke="black" d="M175.483,-216.055C186.961,-207.027 201.246,-195.792 213.711,-185.987"/>
<polygon fill="black" stroke="black" points="215.896,-188.722 221.592,-179.789 211.568,-183.22 215.896,-188.722"/>
</g>
<!-- foobar.decrypt() -->
<g id="node4" class="node"><title>foobar.decrypt()</title>
<ellipse fill="#c5e1a5" stroke="black" cx="166.938" cy="-90" rx="64.7382" ry="18"/>
<text text-anchor="middle" x="166.938" y="-85.8" font-family="Times,serif" font-size="14.00">foobar.decrypt()</text>
</g>
<!-- foobar.decrypt() + &quot;unknown code&quot;&#45;&gt;foobar.decrypt() -->
<g id="edge1" class="edge"><title>foobar.decrypt() + &quot;unknown code&quot;&#45;&gt;foobar.decrypt()</title>
<path fill="none" stroke="black" d="M224.541,-144.055C214.855,-135.134 202.829,-124.057 192.275,-114.336"/>
<polygon fill="black" stroke="black" points="194.631,-111.748 184.904,-107.547 189.888,-116.897 194.631,-111.748"/>
</g>
<!-- &quot;unknown code&quot; -->
<g id="node7" class="node"><title>&quot;unknown code&quot;</title>
<ellipse fill="#c5e1a5" stroke="black" cx="318.938" cy="-90" rx="69.2967" ry="18"/>
<text text-anchor="middle" x="318.938" y="-85.8" font-family="Times,serif" font-size="14.00">&quot;unknown code&quot;</text>
</g>
<!-- foobar.decrypt() + &quot;unknown code&quot;&#45;&gt;&quot;unknown code&quot; -->
<g id="edge4" class="edge"><title>foobar.decrypt() + &quot;unknown code&quot;&#45;&gt;&quot;unknown code&quot;</title>
<path fill="none" stroke="black" d="M261.336,-144.055C271.022,-135.134 283.048,-124.057 293.602,-114.336"/>
<polygon fill="black" stroke="black" points="295.988,-116.897 300.973,-107.547 291.246,-111.748 295.988,-116.897"/>
</g>
<!-- Prototype.decrypt -->
<g id="node5" class="node"><title>Prototype.decrypt</title>
<ellipse fill="#c5e1a5" stroke="black" cx="106.938" cy="-18" rx="73.4496" ry="18"/>
<text text-anchor="middle" x="106.938" y="-13.8" font-family="Times,serif" font-size="14.00">Prototype.decrypt</text>
</g>
<!-- foobar.decrypt()&#45;&gt;Prototype.decrypt -->
<g id="edge2" class="edge"><title>foobar.decrypt()&#45;&gt;Prototype.decrypt</title>
<path fill="none" stroke="black" d="M152.719,-72.411C145.355,-63.8197 136.218,-53.1594 128.048,-43.6275"/>
<polygon fill="black" stroke="black" points="130.638,-41.271 121.472,-35.9562 125.323,-45.8266 130.638,-41.271"/>
</g>
<!-- foobar -->
<g id="node6" class="node"><title>foobar</title>
<ellipse fill="#c5e1a5" stroke="black" cx="227.938" cy="-18" rx="30.0035" ry="18"/>
<text text-anchor="middle" x="227.938" y="-13.8" font-family="Times,serif" font-size="14.00">foobar</text>
</g>
<!-- foobar.decrypt()&#45;&gt;foobar -->
<g id="edge3" class="edge"><title>foobar.decrypt()&#45;&gt;foobar</title>
<path fill="none" stroke="black" d="M181.395,-72.411C189.29,-63.351 199.19,-51.99 207.828,-42.0779"/>
<polygon fill="black" stroke="black" points="210.491,-44.3494 214.422,-34.5108 205.213,-39.7505 210.491,-44.3494"/>
</g>
</g>
</svg>
